<?xml version="1.0" encoding="utf-8"?>
<!-- Generator: Adobe Illustrator 24.0.0, SVG Export Plug-In . SVG Version: 6.00 Build 0)  -->
<svg version="1.1" id="Layer_1" xmlns="http://www.w3.org/2000/svg" xmlns:xlink="http://www.w3.org/1999/xlink" x="0px" y="0px"
	 viewBox="0 0 362.4 50.8" style="enable-background:new 0 0 362.4 50.8;" xml:space="preserve">
<style type="text/css">
	.st0{fill:#2B388F;}
	.st1{fill:#CE202F;}
	.st2{fill:#D02027;}
	.st3{fill:#E25026;}
</style>
<g>
	<g>
		<path class="st0" d="M12.1,17.6H0v-7.1h32.5v7.1H20.5v33.2h-8.3V17.6z"/>
		<path class="st0" d="M48.6,23.9c1.9-2.9,5.4-3.4,8.4-3.4c8.8,0,10.6,4.3,10.6,13.7v16.7h-7.8V35.5c0-6.7,0-8.7-5-8.7
			c-5.2,0-6.2,2.1-6.2,7.7v16.2h-7.8V10.5h7.8V23.9z"/>
		<path class="st0" d="M104.2,42.3c-1,6.8-5.5,9.2-13.5,9.2c-9.2,0-14.2-3.1-14.2-15.9c0-8.5,2.2-15.2,14.5-15.2
			c10.4,0,13.5,4.8,13.5,17.7h-20c0.3,5.6,1.7,7,6.1,7c3,0,4.8-0.6,5.6-2.8H104.2z M96.7,33.2c-0.3-5.4-2.5-6.4-6.1-6.4
			c-4.6,0-5.7,1.6-6,6.4H96.7z"/>
		<path class="st0" d="M140.7,50.8c-4.6-13.4-8.2-26.9-10.8-40.3h8.8c1.5,9.6,3.7,19.2,6.4,28.8l6.2-28.8h9.2l6.4,29
			c2.9-9.7,5.1-19.3,6.5-29h8.4c-2.6,13.4-6.2,26.9-10.8,40.3h-8.8l-6.3-29.3l-6.4,29.3H140.7z"/>
		<path class="st0" d="M193.8,9.7c3.7,0,4.5,1.3,4.5,4.2s-0.8,4.2-4.5,4.2c-3.7,0-4.4-1.2-4.4-4.2S190.1,9.7,193.8,9.7z M189.9,21.2
			h7.8v29.6h-7.8V21.2z"/>
		<path class="st0" d="M234.7,31.2H227c-0.6-2.9-1.6-4.3-5.6-4.3c-4.2,0-6,1.5-6,9.2c0,7.6,1.8,9.1,5.6,9.1c4.3,0,5.7-1.9,6-4.8h7.8
			c-0.6,6.6-3.6,11.2-13.4,11.2c-11.7,0-14.1-6.6-14.1-15.2c0-9.4,2.8-15.9,14.4-15.9C230.4,20.4,234,23.9,234.7,31.2L234.7,31.2z"
			/>
		<path class="st0" d="M244,10.5h7.8v21.6l9.6-11h9.6l-10.3,11.2l10.7,18.4h-9.1l-7.2-12.9l-3.4,3.5v9.4H244V10.5z"/>
		<path class="st1" d="M314.4,50.8h-27.2c0-9.7,5.5-14.2,11.1-17.8c7.1-4.5,8-5.1,8-9.4c0-4.8-1.2-6.5-5.4-6.5c-4.1,0-5.1,1.6-5.3,7
			h-7.8c0.2-9.4,3.8-13.4,13.2-13.4s13.3,3.9,13.3,12.5c0,7.9-3.4,9.9-10.3,14c-4.8,2.8-5.7,3.9-6.9,6.6h17.2V50.8z"/>
		<path class="st1" d="M325.1,42.8c3.7,0,4.5,1.3,4.5,4.2s-0.8,4.2-4.5,4.2c-3.7,0-4.4-1.2-4.4-4.2S321.4,42.8,325.1,42.8z"/>
		<path class="st1" d="M362.4,31.2c0,13.9-2.8,20.5-13.6,20.5s-13.5-6.5-13.5-20.4c0-14.3,2.9-20.6,13.5-20.6
			C359.5,10.7,362.4,17.2,362.4,31.2z M343.3,31.2c0,11.9,1.3,14.1,5.5,14.1s5.6-2.1,5.6-14.1c0-11.9-1.3-14.1-5.6-14.1
			S343.3,19.3,343.3,31.2z"/>
	</g>
	<path class="st2" d="M194.7,20c0,0,3.8-0.9,4.6-4.9c0,0,0.7-2.1-1.1-6.5c0,0-2.6-8.5-8-8.5c0,0,2.4,2.2,1.5,5.1
		c0,0-3.2,4.7-3.4,7.1c0,0-0.7,4.1,3,7C191.2,19.2,192.8,20.1,194.7,20z"/>
	<path class="st3" d="M194.7,18.6c-1.2,0.3-2-3.6-1.7-5c0,0,0.2-1.7,1.5-3.3c0,0,1.3-2.1,1.2-3.4c0,0,1.8,1.3,2.5,4.8
		c0,0,0.5,2.7-1.5,6C196.6,17.8,195.9,18.4,194.7,18.6z"/>
</g>
</svg>
