<?xml version="1.0" encoding="utf-8"?>
<!-- Generator: Adobe Illustrator 24.0.3, SVG Export Plug-In . SVG Version: 6.00 Build 0)  -->
<svg version="1.1" id="Layer_1" xmlns="http://www.w3.org/2000/svg" xmlns:xlink="http://www.w3.org/1999/xlink" x="0px" y="0px"
	 viewBox="0 0 357.4 161.2" style="enable-background:new 0 0 357.4 161.2;" xml:space="preserve">
<style type="text/css">
	.st0{fill:#231F20;}
	.st1{fill:#2B388F;}
	.st2{fill:#D02027;}
	.st3{fill:#E25026;}
</style>
<g>
	<path class="st0" d="M71.7,135c0.9,1.5,1.3,3.6,1.1,6.2c-0.1,0.9-0.3,1.9-0.5,3.1c-0.5,2.2-1.3,4.2-2.4,5.9
		c-0.1,0.1-0.3,0.3-0.6,0.6c-0.3,0.3-0.5,0.5-0.5,0.7c-0.1,0.1-0.3,0.2-0.6,0.5c-0.3,0.2-0.5,0.4-0.7,0.6c-0.2,0.1-0.4,0.3-0.8,0.5
		c-0.3,0.2-0.6,0.4-0.9,0.5c-0.3,0.1-0.6,0.2-1,0.3c-0.5,0.1-1.2,0.2-2.2,0.2c-1,0-1.8,0.2-2.2,0.4c-0.2,0.1-0.4,0.2-0.6,0.5
		c-0.3,0.3-0.5,0.4-0.6,0.5c-0.3,0.1-0.6,0.1-1-0.1c-0.4-0.1-0.6-0.3-0.6-0.6c-0.1-0.2,0-0.4,0.1-0.7c0.1-0.3,0.2-0.5,0.1-0.7
		c0.1-0.1,0.2-0.4,0.3-0.8c0.1-0.4,0.2-0.7,0.3-0.9c0.2-0.9,0.3-1.6,0.4-2c0-0.2,0.1-0.5,0.2-0.8c0.1-0.3,0.2-0.5,0.2-0.6
		c0-0.1,0.1-0.3,0.1-0.6c0-0.2,0-0.4,0.1-0.6l0.2-0.8c0.2-0.5,0.3-0.8,0.4-1.1v-0.6c0-0.1,0.1-0.3,0.2-0.6c0.1-0.3,0.2-0.5,0.2-0.6
		c0,0,0-0.1,0-0.2c0-0.1,0-0.2,0-0.2c0-0.1,0-0.1,0.1-0.2c0.1-0.1,0.1-0.2,0.1-0.2c0-0.1,0.1-0.5,0.2-1c0.1-0.5,0.2-0.9,0.4-1.1
		c-0.1-0.2-0.1-0.3-0.1-0.4c0.2-0.3,0.3-0.5,0.3-0.6c0-0.4,0.1-0.9,0.3-1.5c0.2-0.6,0.3-1.1,0.3-1.4c0.2-0.3,0.3-0.9,0.5-1.6
		s0.4-1.3,0.6-1.7c0-0.1,0.1-0.4,0.3-0.9c-0.2-0.1-0.6-0.1-1.3-0.2c-0.7-0.1-1.2-0.2-1.5-0.4c0-0.1,0-0.4,0.2-0.9
		c0.1-0.2,0.9-0.2,2.3,0l1.7,0.4c0.1,0,0.2,0,0.2,0l0,0l0,0c0.2,0.1,0.5,0.2,0.8,0.3c0.3,0.1,0.6,0.2,0.7,0.2c0.3,0.1,1,0.4,2.1,1
		C70,133.1,71,133.9,71.7,135z M70.8,139.3c0.3-2.2-0.5-3.9-2.1-5.2c-0.1-0.1-0.3-0.2-0.6-0.5c-0.3-0.2-0.6-0.4-0.8-0.5
		c-1.5-0.4-2.3-0.6-2.3-0.7c-0.1,1-0.2,2-0.3,3c-0.1,1-0.3,2.1-0.6,3.4c-0.2,1.2-0.4,2.1-0.5,2.6c-0.2,0.3-0.3,0.8-0.4,1.7
		c-0.1,0.8-0.3,1.4-0.4,1.7c0,0,0,0.2-0.1,0.4c0,0.2-0.1,0.4,0,0.6c-0.2,0.2-0.2,0.4-0.2,0.4c-0.2,0.9-0.8,3.1-1.9,6.6
		c2,0.2,3.6,0,4.7-0.5c0.9-0.4,1.8-1.5,2.9-3.4C69.4,146.6,70.3,143.4,70.8,139.3z"/>
	<path class="st0" d="M85.6,143.7c0.3,0.2,0.3,0.5,0,0.8c-0.1,0.2-0.3,0.4-0.6,0.7c-0.3,0.3-0.5,0.4-0.5,0.5
		c-0.1,0.1-0.2,0.3-0.3,0.4c-0.1,0.1-0.3,0.3-0.5,0.4c-0.2,0.1-0.3,0.3-0.4,0.3c-0.5,0.5-1,0.8-1.4,1.1c-0.1,0-0.2,0.1-0.5,0.3
		c-0.3,0.1-0.4,0.2-0.5,0.3c-0.1,0-0.3,0.1-0.6,0.2c-0.3,0.1-0.5,0-0.6-0.1l-0.3,0.5c-0.2,0.3-0.6,0.8-1,1.4
		c-0.9,1.1-1.8,1.9-2.6,2.3c-0.8,0.1-1.5-0.2-2-0.8c-0.5-0.6-0.8-1.3-0.9-2.2c-0.1-0.9,0.2-2.3,1-4.1c0.5-0.6,1-1.3,1.7-1.8
		c0.4-0.3,0.8-0.5,1.2-0.8c0.5-0.2,1-0.4,1.6-0.5c0.6-0.1,1.2,0.1,1.6,0.5c0.5-0.1,1,0.1,1.4,0.8c0,0.2,0,0.3,0,0.4
		c0,0.1,0,0.3-0.1,0.6c-0.1,0.3-0.1,0.4-0.1,0.5c-0.1,0.4-0.3,0.8-0.5,1.3l-0.1,0.2c0.3,0,0.6-0.1,1-0.3c0.3-0.2,0.6-0.4,0.8-0.7
		c0.1-0.1,0.2-0.2,0.3-0.2l0.7-0.7c0.5-0.5,0.9-0.8,1.2-1c0.2-0.1,0.3-0.2,0.4-0.2C85.2,143.6,85.4,143.6,85.6,143.7z M77,150
		c0.2-0.3,0.5-0.6,0.9-1.1c0.4-0.5,0.6-0.8,0.8-1c-0.1,0.1-0.3-0.3-0.6-1.1c-0.1-0.2-0.1-0.3-0.1-0.3c-0.1-0.2-0.1-0.8-0.2-1.7
		c-0.3-0.1-0.8,0.3-1.7,1.1c-0.4,0.4-0.8,1-1.2,1.9c-0.1,0.2-0.2,0.6-0.3,1.4v1.3c0,0.4,0.1,0.6,0.3,0.7c0.1,0.1,0.3,0.1,0.5,0
		C75.7,151.1,76.2,150.7,77,150z M79.9,145.6c0.2-0.6,0.2-1.1,0.1-1.3l0,0c-0.1-0.2-0.3-0.3-0.4-0.4c-0.2-0.1-0.3,0-0.5,0.1v1.3
		c0.1,0.9,0.2,1.4,0.2,1.6L79.9,145.6z"/>
	<path class="st0" d="M85.8,152.8c-0.6-0.1-1.2-0.5-1.7-1.1c-0.5-0.6-0.7-1.4-0.8-2.2c0-0.3,0.1-1,0.3-2.1c0-0.1,0-0.2,0-0.5
		c0-0.3,0-0.5,0.1-0.6c0-0.1,0-0.2,0.1-0.4s0.2-0.3,0.2-0.4c0-0.1,0.1-0.2,0.1-0.3c0-0.1,0-0.2,0-0.3c0.1-0.2,0.4-0.9,0.9-2
		c0.5-1.2,1-1.8,1.3-1.8c0.2,0,0.3,0,0.4,0c0.1,0,0.2,0.2,0.4,0.3c0.1,0.2,0.2,0.3,0.2,0.3c0,0.2,0,0.4,0,0.6c0,0.2,0,0.4-0.1,0.6
		c0,0.2,0,0.4,0,0.5c-0.5,0.7-0.9,1.9-1.2,3.5c0,0-0.1,0.3-0.3,0.9c-0.2,0.6-0.3,1-0.3,1.3c-0.1,1,0,1.7,0.2,2.2
		c0.4-0.2,0.8-0.5,1.2-0.9c0.4-0.4,0.7-0.8,1.1-1.3c0.4-0.5,0.7-0.9,0.9-1.1c0.3-0.7,0.8-1.4,1.4-2.3l0.5-0.9c0.3-0.6,0.6-0.9,0.8-1
		c0.2,0,0.5,0.1,0.9,0.5c0,0.5-0.1,1.7-0.4,3.5c-0.3,1.8-0.3,3,0.1,3.5c1.1-0.7,2.1-2.3,2.9-4.8c0.2-0.4,0.5-1.1,0.8-2.1
		c0.3-1,0.5-1.7,0.8-2.1c0-0.1,0.1,0,0.3,0c0.2,0.1,0.3,0.2,0.3,0.2c0.1,0.1,0.1,0.1,0.1,0.2c0,0.1,0.1,0.2,0.1,0.3
		c0,0.1,0,0.2,0.1,0.2c0.2,0.7,0.6,1.3,1,1.9c0.2,0.3,0.5,0.4,0.8,0.5c0.3,0.1,0.6,0.1,0.8,0s0.5-0.1,0.9-0.2l1.1-1
		c0.7-0.6,1.2-1,1.4-1c0.2-0.1,0.4,0,0.5,0c0.2,0.1,0.2,0.2,0.2,0.3c0,0.1-0.1,0.3-0.2,0.4c-0.1,0.1-0.2,0.3-0.4,0.4
		c-0.1,0.1-0.3,0.2-0.4,0.4c-0.2,0.1-0.3,0.2-0.3,0.2c-0.4,0.5-0.7,0.8-0.9,1c-0.2,0.2-0.5,0.3-0.9,0.5c-0.5,0.2-1,0.3-1.7,0.2
		c-0.5,0-1-0.3-1.7-0.9c-0.6-0.7-1-1.1-0.9-1.2c-0.7,2.1-1.1,3.2-1.1,3.4c-0.3,0.7-0.6,1.4-0.9,2c-0.2,0.4-0.3,0.6-0.3,0.6
		c0,0-0.1,0.1-0.2,0.2c-0.1,0.1-0.2,0.2-0.3,0.2c-0.5,0.7-1,1-1.5,1c-0.9-0.1-1.5-0.7-1.8-1.8c-0.3-1.2-0.3-2.2,0-3.2
		c-0.1,0.2-0.3,0.5-0.5,1c-0.2,0.5-0.4,0.8-0.4,0.9c0,0,0,0-0.1,0c-0.1,0-0.1,0-0.1,0c0,0-0.1,0.1-0.1,0.3c-0.1,0.2-0.1,0.3-0.1,0.3
		c0,0.1-0.1,0.1-0.1,0.2c-0.1,0.1-0.2,0.1-0.2,0.1c0,0,0,0.1,0,0.2c0,0.1,0,0.2,0,0.2c0,0-0.1,0.1-0.2,0.1c-0.1,0-0.2,0.1-0.2,0.2
		c-0.3,0.4-0.5,0.6-0.6,0.8C87.1,152.6,86.5,152.9,85.8,152.8z"/>
	<path class="st0" d="M108.4,153.4c-0.4,0.3-0.8,0.3-1.2,0.2c-0.4-0.2-0.6-0.5-0.6-1c-0.1-0.5,0-1.2,0.2-2.1
		c0.2-0.8,0.4-1.4,0.6-1.8c0-0.1,0.1-0.1,0.1-0.2c0-0.1,0.1-0.2,0.1-0.3c0-0.1,0.1-0.2,0.1-0.2c0.1-0.2,0.2-0.4,0.3-0.7
		c0.1-0.3,0.3-0.6,0.3-0.8c0.1-0.2,0.1-0.5,0.1-0.7c0-0.6-0.4-0.7-1.2-0.2c-0.3,0.2-0.7,0.5-1.4,1.1c-0.2,0.2-0.4,0.4-0.7,0.8
		c-0.2,0.4-0.4,0.6-0.5,0.7c-0.6,0.7-0.9,1.4-1.1,2c-0.2,0.1-0.3,0.4-0.5,0.9c-0.2,0.5-0.3,0.8-0.5,0.9c-0.8-0.1-1.3-0.4-1.4-1
		c0-0.1,0-0.2,0-0.3c0-0.1,0.1-0.2,0.1-0.4s0.1-0.3,0.1-0.4c0-0.1,0.2-0.6,0.4-1.6c0.3-1,0.5-1.7,0.7-2.2c0.9-2,1.5-3.2,1.6-3.5
		c0.4-1,0.7-1.5,1.2-1.5c0.1,0,0.1,0,0.2,0c0.4,0.1,0.6,0.4,0.7,1c0.1,0.4,0,0.9-0.3,1.7c-0.3,0.8-0.4,1.3-0.4,1.4
		c0.2,0,0.6-0.3,1.3-0.8c0.7-0.5,1.3-0.8,1.7-0.7c0.8,0.1,1.3,0.7,1.4,1.7c0.1,1.1,0,1.9-0.5,2.6c0,0,0,0.1-0.1,0.1
		c-0.1,0.1-0.1,0.1-0.1,0.1c0,0.1-0.1,0.2-0.1,0.3c0,0.2,0,0.3,0,0.3c0,0.1-0.1,0.2-0.3,0.5c-0.2,0.3-0.3,0.5-0.4,0.7
		c0,0.1-0.1,0.3-0.2,0.6s-0.2,0.4-0.2,0.5c0,0.1-0.1,0.3-0.2,0.5c-0.1,0.2-0.1,0.3-0.1,0.4c0.1,0,0.2,0,0.4-0.1
		c0.2-0.1,0.3-0.2,0.4-0.3c0.1-0.1,0.3-0.3,0.4-0.5c0.2-0.2,0.3-0.3,0.3-0.3c0.6-0.6,1.1-1,1.4-1.4c0.1-0.1,0.3-0.4,0.6-0.7
		c0.1-0.1,0.2-0.3,0.4-0.5c0.2-0.2,0.3-0.3,0.4-0.4c0.3-0.3,0.6-0.6,1.1-1.2c0.1-0.1,0.2-0.2,0.4-0.4c0.2-0.2,0.3-0.3,0.4-0.5
		c0.1-0.1,0.2-0.3,0.4-0.6c0.2-0.3,0.4-0.5,0.5-0.7c0.1-0.1,0.3-0.3,0.5-0.5c0.2-0.2,0.5-0.3,0.7-0.4c0.2-0.1,0.4,0,0.5,0
		c0.2,0.3,0.3,0.5,0.2,0.6c-0.1,0.1-0.3,0.3-0.6,0.6c-0.3,0.3-0.5,0.4-0.5,0.5l-0.2,0.1c-0.3,0.4-0.6,0.8-1,1.3
		c-0.4,0.4-0.9,0.9-1.5,1.5s-1,1-1.2,1.2c-0.5,0.5-1.1,1.1-1.8,1.9C109.1,152.6,108.5,153.3,108.4,153.4z"/>
	<path class="st0" d="M116.4,153.9c-0.7,0-1.4-0.5-2-1.3c-0.4-0.6-0.4-1.6,0-3.1c0-0.2,0-0.4,0-0.8s0-0.6,0-0.8
		c0-0.1,0.1-0.3,0.2-0.5s0.2-0.4,0.2-0.6c0.2-0.5,0.5-1.3,0.8-2.3c0.3-1,0.6-1.6,0.7-2c0-0.1,0.2-0.6,0.6-1.4
		c0.4-0.8,0.6-1.4,0.6-1.8c-0.1-0.1-0.5-0.1-1.2,0c-0.7,0-1,0.1-1.1,0.1c-0.1,0-0.2,0-0.5,0c-0.3,0-0.5,0-0.8,0
		c-0.2,0-0.4,0-0.7-0.1c-0.2,0-0.4-0.1-0.4-0.2c-0.1-0.2-0.1-0.4,0-0.7c0.1-0.3,0.2-0.4,0.4-0.5c0.3-0.2,0.8-0.2,1.4,0
		c0.2,0.1,0.8,0.1,1.7,0.1c0.8,0,1.3,0,1.5,0c0.3,0,0.6-0.2,0.8-0.5c0.2-0.3,0.4-0.5,0.5-0.8s0.2-0.6,0.4-1c0.1-0.5,0.2-0.7,0.3-0.8
		c0.1-0.2,0.3-0.6,0.5-1.1c0.2-0.5,0.4-0.9,0.5-1.2c0,0,0.1-0.2,0.3-0.5c0.1-0.3,0.3-0.5,0.4-0.7c0.1-0.2,0.3-0.3,0.4-0.3
		c0.5-0.1,0.8,0.2,1,0.8c0,0.4,0,0.7,0,0.9c0,0.2-0.1,0.5-0.2,0.9c-0.1,0.4-0.2,0.7-0.2,0.9c0,0.1-0.1,0.3-0.3,0.4
		c0,0.4-0.2,1-0.6,1.7c-0.4,0.7-0.6,1.2-0.6,1.5c0.3,0.1,0.9,0,1.6-0.1c0.7-0.1,1.3-0.2,1.7-0.1c0.1,0,0.3,0.1,0.5,0.3
		c0.2,0.2,0.3,0.3,0.3,0.5c0,0.1-0.1,0.2-0.2,0.2c-0.1,0-0.3,0.1-0.5,0.1h-0.3l-3.5,0.6c-0.1,0.1-0.2,0.5-0.5,1.1
		c-0.3,0.6-0.5,1.1-0.7,1.3c-0.1,0.6-0.4,1.3-0.8,2.3c-0.4,1-0.7,1.6-0.8,1.9c-0.1,0.3-0.3,0.8-0.6,1.4c-0.3,0.6-0.5,1.2-0.7,1.7
		c-0.2,0.5-0.3,1-0.4,1.5c-0.1,0.8,0,1.3,0.2,1.4c0.3,0.2,0.8,0,1.3-0.6c0.7-0.6,1.1-1,1.3-1.2c0.1-0.1,0.2-0.3,0.5-0.6
		c0.3-0.3,0.4-0.6,0.5-0.8c0.1-0.1,0.2-0.3,0.4-0.5c0.2-0.2,0.4-0.4,0.4-0.5c0.2-0.3,0.5-0.6,0.7-0.7c0.4-0.3,0.9-0.8,1.6-1.5
		c0.6-0.7,1.1-1.2,1.5-1.5c0.7-0.6,1.2-1,1.4-1c0.2-0.1,0.4,0,0.5,0c0.2,0.3,0.3,0.5,0.2,0.6c-0.1,0.1-0.3,0.3-0.6,0.6
		s-0.5,0.4-0.5,0.5c-0.3,0.2-0.6,0.5-1.1,0.9c-0.5,0.4-0.8,0.8-1,1c-0.1,0.1-0.2,0.2-0.4,0.4s-0.3,0.3-0.4,0.4
		c-0.1,0.1-0.2,0.2-0.3,0.4c-0.1,0.2-0.3,0.4-0.4,0.5c-0.6,0.6-0.9,0.9-1,1.1c-0.2,0.3-0.5,0.8-1,1.3c-0.6,0.7-1,1.1-1.1,1.3
		c-0.1,0-0.2,0-0.2,0.1c-0.1,0-0.1,0.1-0.1,0.2c0,0.1-0.1,0.2-0.1,0.2C117.4,153.7,116.8,153.9,116.4,153.9z"/>
	<path class="st0" d="M135.2,143.7c0.3,0.2,0.3,0.5,0,0.8c-0.1,0.2-0.3,0.4-0.6,0.7c-0.3,0.3-0.5,0.4-0.5,0.5
		c-0.1,0.1-0.2,0.3-0.3,0.4c-0.1,0.1-0.3,0.3-0.5,0.4c-0.2,0.1-0.3,0.3-0.4,0.3c-0.5,0.5-1,0.8-1.4,1.1c-0.1,0-0.2,0.1-0.5,0.3
		c-0.3,0.1-0.4,0.2-0.5,0.3c-0.1,0-0.3,0.1-0.6,0.2c-0.3,0.1-0.5,0-0.6-0.1l-0.3,0.5c-0.2,0.3-0.6,0.8-1,1.4
		c-0.9,1.1-1.8,1.9-2.6,2.3c-0.8,0.1-1.5-0.2-2-0.8c-0.5-0.6-0.8-1.3-0.9-2.2c-0.1-0.9,0.2-2.3,1-4.1c0.5-0.6,1-1.3,1.7-1.8
		c0.4-0.3,0.8-0.5,1.2-0.8c0.5-0.2,1-0.4,1.6-0.5c0.6-0.1,1.2,0.1,1.6,0.5c0.5-0.1,1,0.1,1.4,0.8c0,0.2,0,0.3,0,0.4
		c0,0.1,0,0.3-0.1,0.6c-0.1,0.3-0.1,0.4-0.1,0.5c-0.1,0.4-0.3,0.8-0.5,1.3l-0.1,0.2c0.3,0,0.6-0.1,1-0.3c0.3-0.2,0.6-0.4,0.8-0.7
		c0.1-0.1,0.2-0.2,0.3-0.2l0.7-0.7c0.5-0.5,0.9-0.8,1.2-1c0.2-0.1,0.3-0.2,0.4-0.2C134.9,143.6,135.1,143.6,135.2,143.7z M126.6,150
		c0.2-0.3,0.5-0.6,0.9-1.1c0.4-0.5,0.6-0.8,0.8-1c-0.1,0.1-0.3-0.3-0.6-1.1c-0.1-0.2-0.1-0.3-0.1-0.3c-0.1-0.2-0.1-0.8-0.2-1.7
		c-0.3-0.1-0.8,0.3-1.7,1.1c-0.4,0.4-0.8,1-1.2,1.9c-0.1,0.2-0.2,0.6-0.3,1.4v1.3c0,0.4,0.1,0.6,0.3,0.7c0.1,0.1,0.3,0.1,0.5,0
		C125.4,151.1,125.9,150.7,126.6,150z M129.6,145.6c0.2-0.6,0.2-1.1,0.1-1.3l0,0c-0.1-0.2-0.3-0.3-0.4-0.4c-0.2-0.1-0.3,0-0.5,0.1
		v1.3c0.1,0.9,0.2,1.4,0.2,1.6L129.6,145.6z"/>
	<path class="st0" d="M135.5,152.8c-0.6-0.1-1.2-0.5-1.7-1.1c-0.5-0.6-0.7-1.4-0.8-2.2c0-0.3,0.1-1,0.3-2.1c0-0.1,0-0.2,0-0.5
		c0-0.3,0-0.5,0.1-0.6c0-0.1,0-0.2,0.1-0.4s0.2-0.3,0.2-0.4c0-0.1,0.1-0.2,0.1-0.3c0-0.1,0-0.2,0-0.3c0.1-0.2,0.4-0.9,0.9-2
		c0.5-1.2,1-1.8,1.3-1.8c0.2,0,0.3,0,0.4,0c0.1,0,0.2,0.2,0.4,0.3c0.1,0.2,0.2,0.3,0.2,0.3c0,0.2,0,0.4,0,0.6c0,0.2,0,0.4-0.1,0.6
		c0,0.2,0,0.4,0,0.5c-0.5,0.7-0.9,1.9-1.2,3.5c0,0-0.1,0.3-0.3,0.9c-0.2,0.6-0.3,1-0.3,1.3c-0.1,1,0,1.7,0.2,2.2
		c0.4-0.2,0.8-0.5,1.2-0.9c0.4-0.4,0.7-0.8,1.1-1.3c0.4-0.5,0.7-0.9,0.9-1.1c0.3-0.7,0.8-1.4,1.4-2.3l0.5-0.9c0.3-0.6,0.6-0.9,0.8-1
		c0.2,0,0.5,0.1,0.9,0.5c0,0.5-0.1,1.7-0.4,3.5c-0.3,1.8-0.3,3,0.1,3.5c1.1-0.7,2.1-2.3,2.9-4.8c0.2-0.4,0.5-1.1,0.8-2.1
		c0.3-1,0.5-1.7,0.8-2.1c0-0.1,0.1,0,0.3,0c0.2,0.1,0.3,0.2,0.3,0.2c0.1,0.1,0.1,0.1,0.1,0.2c0,0.1,0.1,0.2,0.1,0.3
		c0,0.1,0,0.2,0.1,0.2c0.2,0.7,0.6,1.3,1,1.9c0.2,0.3,0.5,0.4,0.8,0.5c0.3,0.1,0.6,0.1,0.8,0s0.5-0.1,0.9-0.2l1.1-1
		c0.7-0.6,1.2-1,1.4-1c0.2-0.1,0.4,0,0.5,0c0.2,0.1,0.2,0.2,0.2,0.3c0,0.1-0.1,0.3-0.2,0.4c-0.1,0.1-0.2,0.3-0.4,0.4
		c-0.1,0.1-0.3,0.2-0.4,0.4c-0.2,0.1-0.3,0.2-0.3,0.2c-0.4,0.5-0.7,0.8-0.9,1c-0.2,0.2-0.5,0.3-0.9,0.5c-0.5,0.2-1,0.3-1.7,0.2
		c-0.5,0-1-0.3-1.7-0.9c-0.6-0.7-1-1.1-0.9-1.2c-0.7,2.1-1.1,3.2-1.1,3.4c-0.3,0.7-0.6,1.4-0.9,2c-0.2,0.4-0.3,0.6-0.3,0.6
		c0,0-0.1,0.1-0.2,0.2c-0.1,0.1-0.2,0.2-0.3,0.2c-0.5,0.7-1,1-1.5,1c-0.9-0.1-1.5-0.7-1.8-1.8c-0.3-1.2-0.3-2.2,0-3.2
		c-0.1,0.2-0.3,0.5-0.5,1c-0.2,0.5-0.4,0.8-0.4,0.9c0,0,0,0-0.1,0c-0.1,0-0.1,0-0.1,0c0,0-0.1,0.1-0.1,0.3c-0.1,0.2-0.1,0.3-0.1,0.3
		c0,0.1-0.1,0.1-0.1,0.2c-0.1,0.1-0.2,0.1-0.2,0.1c0,0,0,0.1,0,0.2c0,0.1,0,0.2,0,0.2c0,0-0.1,0.1-0.2,0.1c-0.1,0-0.2,0.1-0.2,0.2
		c-0.3,0.4-0.5,0.6-0.6,0.8C136.8,152.6,136.2,152.9,135.5,152.8z"/>
	<path class="st0" d="M158.1,153.4c-0.4,0.3-0.8,0.3-1.2,0.2c-0.4-0.2-0.6-0.5-0.6-1c-0.1-0.5,0-1.2,0.2-2.1
		c0.2-0.8,0.4-1.4,0.6-1.8c0-0.1,0.1-0.1,0.1-0.2c0-0.1,0.1-0.2,0.1-0.3c0-0.1,0.1-0.2,0.1-0.2c0.1-0.2,0.2-0.4,0.3-0.7
		c0.1-0.3,0.3-0.6,0.3-0.8c0.1-0.2,0.1-0.5,0.1-0.7c0-0.6-0.4-0.7-1.2-0.2c-0.3,0.2-0.7,0.5-1.4,1.1c-0.2,0.2-0.4,0.4-0.7,0.8
		c-0.2,0.4-0.4,0.6-0.5,0.7c-0.6,0.7-0.9,1.4-1.1,2c-0.2,0.1-0.3,0.4-0.5,0.9c-0.2,0.5-0.3,0.8-0.5,0.9c-0.8-0.1-1.3-0.4-1.4-1
		c0-0.1,0-0.2,0-0.3c0-0.1,0.1-0.2,0.1-0.4s0.1-0.3,0.1-0.4c0-0.1,0.2-0.6,0.4-1.6c0.3-1,0.5-1.7,0.7-2.2c0.9-2,1.5-3.2,1.6-3.5
		c0.4-1,0.7-1.5,1.2-1.5c0.1,0,0.1,0,0.2,0c0.4,0.1,0.6,0.4,0.7,1c0.1,0.4,0,0.9-0.3,1.7c-0.3,0.8-0.4,1.3-0.4,1.4
		c0.2,0,0.6-0.3,1.3-0.8c0.7-0.5,1.3-0.8,1.7-0.7c0.8,0.1,1.3,0.7,1.4,1.7c0.1,1.1,0,1.9-0.5,2.6c0,0,0,0.1-0.1,0.1
		c-0.1,0.1-0.1,0.1-0.1,0.1c0,0.1-0.1,0.2-0.1,0.3c0,0.2,0,0.3,0,0.3c0,0.1-0.1,0.2-0.3,0.5c-0.2,0.3-0.3,0.5-0.4,0.7
		c0,0.1-0.1,0.3-0.2,0.6s-0.2,0.4-0.2,0.5c0,0.1-0.1,0.3-0.2,0.5c-0.1,0.2-0.1,0.3-0.1,0.4c0.1,0,0.2,0,0.4-0.1
		c0.2-0.1,0.3-0.2,0.4-0.3c0.1-0.1,0.3-0.3,0.4-0.5c0.2-0.2,0.3-0.3,0.3-0.3c0.6-0.6,1.1-1,1.4-1.4c0.1-0.1,0.3-0.4,0.6-0.7
		c0.1-0.1,0.2-0.3,0.4-0.5c0.2-0.2,0.3-0.3,0.4-0.4c0.3-0.3,0.6-0.6,1.1-1.2c0.1-0.1,0.2-0.2,0.4-0.4c0.2-0.2,0.3-0.3,0.4-0.5
		c0.1-0.1,0.2-0.3,0.4-0.6c0.2-0.3,0.4-0.5,0.5-0.7c0.1-0.1,0.3-0.3,0.5-0.5c0.2-0.2,0.5-0.3,0.7-0.4c0.2-0.1,0.4,0,0.5,0
		c0.2,0.3,0.3,0.5,0.2,0.6c-0.1,0.1-0.3,0.3-0.6,0.6c-0.3,0.3-0.5,0.4-0.5,0.5l-0.2,0.1c-0.3,0.4-0.6,0.8-1,1.3
		c-0.4,0.4-0.9,0.9-1.5,1.5s-1,1-1.2,1.2c-0.5,0.5-1.1,1.1-1.8,1.9C158.8,152.6,158.2,153.3,158.1,153.4z"/>
	<path class="st0" d="M177.6,155.1c-1.3,0.5-2.5,0.3-3.6-0.5c-1.1-0.8-1.8-2-1.9-3.5c0-0.3,0-0.8,0-1.3c0-0.6,0-1,0-1.3
		c0.1-0.2,0.1-0.4,0.2-0.5c0-0.1,0-0.2,0-0.3c0-0.1,0-0.2,0-0.3l0.2-0.5c0-0.1,0-0.3,0-0.5c0-0.2,0-0.3,0-0.4
		c0.2-0.3,0.3-0.8,0.5-1.5c0.2-0.7,0.4-1.2,0.6-1.5c0,0,0-0.1,0-0.2c0-0.1,0-0.2,0-0.2c0.3-0.4,0.4-0.6,0.4-0.7c0-0.4,0-0.8,0.1-1.1
		c0.1-0.1,0.2-0.3,0.4-0.6c0.2-0.3,0.3-0.5,0.4-0.7c0-0.1,0-0.2,0-0.3c0-0.1,0-0.2,0-0.3c0.1-0.2,0.2-0.4,0.4-0.8
		c0.2-0.4,0.3-0.7,0.4-0.9c0.3-0.4,0.6-1,1-2c0,0,0.1-0.1,0.2-0.2c0.1-0.1,0.1-0.2,0.2-0.2c0,0,0-0.1,0-0.2c0-0.1,0-0.1,0-0.2
		c0-0.1,0.2-0.2,0.4-0.5c0.3-0.3,0.4-0.5,0.4-0.8c0.3-0.2,0.7-0.8,1.4-1.7c0.2-0.1,0.3-0.2,0.4-0.3s0.3-0.3,0.4-0.4
		c0.2-0.2,0.3-0.3,0.3-0.3c0.2,0,0.7-0.2,1.5-0.5c1.2-0.5,2.1-0.5,2.8-0.2c1.5,0.7,2.1,2.1,1.9,4.1c0,0.2-0.1,0.6-0.2,1.1
		s-0.1,0.9-0.2,1.2v0.6c-0.1,0.9-0.2,1.7-0.4,2.3c0,0.5-0.2,1.2-0.4,2c-0.2,0.8-0.3,1.5-0.4,1.9c-0.1,0.3-0.2,0.7-0.4,1.3
		s-0.3,0.9-0.4,1.1c0,0.1-0.2,0.4-0.4,0.9c-0.2,0.5-0.3,0.9-0.4,1.2c-1.1,2.2-2.1,3.9-3.1,5.2c-0.1,0.1-0.2,0.2-0.4,0.4
		s-0.3,0.3-0.4,0.4C178.7,154.5,178.1,154.9,177.6,155.1z M175.5,153.6c0.8-0.1,1.4-0.3,2-0.6s1.1-0.9,1.7-1.6
		c0.6-0.7,1-1.2,1.2-1.4c0-0.2,0.2-0.5,0.4-0.8c0.2-0.3,0.4-0.6,0.4-0.9c0.4-0.5,0.8-1.2,1.2-2.2c0.5-1,0.7-1.6,0.8-1.8
		c0-0.3,0.2-0.8,0.5-1.6c0-0.2,0.1-0.8,0.4-1.8c0.4-1.7,0.6-2.7,0.6-2.9c0-0.2,0.1-0.3,0.1-0.6c0-0.2,0.1-0.3,0.1-0.4
		c0-0.1,0-0.2,0-0.4c0-0.2,0-0.3,0-0.4c0-0.1,0.1-0.4,0.1-0.7c0.1-0.3,0.1-0.6,0.1-0.8c0-0.2,0-0.4,0-0.7c0-0.3,0-0.5,0-0.8
		s-0.1-0.5-0.3-0.7c-0.3-0.5-0.6-0.7-0.9-0.8c-0.4-0.1-0.7,0-0.9,0.1c-0.2,0.1-0.6,0.4-1,0.8c-0.5,0.4-0.7,0.6-0.9,0.7
		c0,0.1-0.1,0.2-0.2,0.4c-0.1,0.2-0.2,0.3-0.2,0.3c-0.1,0-0.3,0.1-0.4,0.2c-0.4,0.9-0.8,1.7-1.2,2.3c-0.1,0.4-0.3,1-0.7,1.8
		c-0.4,0.8-0.6,1.4-0.7,1.9c-0.4,0.4-0.7,1-0.8,1.8c-0.2,0.5-0.3,0.8-0.3,1.1c0,0,0,0.1-0.1,0.1c-0.1,0.1-0.1,0.1-0.1,0.2
		c-0.1,0.3-0.2,0.9-0.5,1.7c-0.3,0.8-0.4,1.6-0.5,2.1c0,0-0.1,0.1-0.3,0.4c0,0.3-0.1,0.8-0.2,1.4c-0.1,0.6-0.2,1.1-0.2,1.4
		c0,0.8,0,1.2,0,1.3c0,0.1,0.1,0.3,0.1,0.6c0,0.3,0.1,0.5,0.2,0.7C175.2,153.4,175.3,153.5,175.5,153.6z"/>
	<path class="st0" d="M188.2,158.5c-0.9-0.1-1.6-0.7-2-1.7s-0.6-2.2-0.5-3.4c0-0.3,0.1-0.7,0.2-1.2c0.1-0.6,0.2-1,0.2-1.2
		c0-0.2,0.1-0.3,0.1-0.5s0.1-0.3,0.1-0.4v-0.4c0-0.1,0-0.3,0.1-0.5c0.1-0.2,0.2-0.4,0.3-0.7c0.1-0.2,0.2-0.4,0.2-0.6
		c0.8-3,2.2-6.7,3.9-11c1.1-2.4,2.5-4.7,4.1-6.8l0,0c0.1,0,0.1-0.1,0.1-0.1c0.3-0.4,0.6-0.7,1.1-0.9c0.5-0.3,0.9-0.4,1.3-0.3
		c0.1,0,0.3,0.1,0.4,0.2c0.1,0.1,0.3,0.2,0.4,0.4s0.3,0.3,0.3,0.3c0.1,1.1-0.2,2.6-0.8,4.4c-0.6,1.6-1.1,2.8-1.7,3.8
		c-0.8,1.6-1.4,2.6-1.7,3.1c0,0-0.1,0.1-0.1,0.1c0,0-0.1,0.1-0.1,0.1s-0.1,0.1-0.1,0.1c-0.1,0.1-0.1,0.2-0.2,0.4
		c-0.1,0.2-0.2,0.3-0.2,0.4c-0.5,0.7-1.2,1.4-2.1,2.2c-0.1,0.1-0.2,0.2-0.4,0.3c-0.2,0.1-0.3,0.3-0.4,0.3c-0.1,0-0.2,0.1-0.3,0.1
		s-0.3,0.1-0.4,0.2c-0.1,0-0.2,0.1-0.3,0.2c-0.1,0.1-0.2,0.2-0.2,0.3c0,0.1,0,0.2,0,0.3s0,0.2,0,0.3c0,0.1-0.1,0.2-0.1,0.3
		c-0.1,0.1-0.1,0.3-0.1,0.3l-0.1,0.6c-0.3,0.8-0.5,1.4-0.6,1.7c0.5,0,0.9-0.1,1.3-0.3c0.4-0.1,0.9-0.4,1.3-0.7
		c0.5-0.3,0.8-0.5,1-0.7c0.2-0.2,0.6-0.5,1.1-1c0.5-0.5,0.8-0.8,0.9-0.8c0.2-0.2,0.3-0.3,0.4-0.4c0.3-0.3,0.5-0.4,0.6-0.5
		c0.1-0.1,0.2-0.2,0.4-0.4s0.4-0.3,0.5-0.5s0.3-0.2,0.5-0.3c0.2-0.1,0.4,0,0.6,0c0.2,0.3,0.2,0.5,0.1,0.6c-0.1,0.1-0.3,0.3-0.6,0.6
		s-0.5,0.4-0.5,0.5c-1,0.9-1.8,1.6-2.3,2c-1.2,1.1-2.2,1.8-3,2.2c-0.7,0.4-1.5,0.5-2.3,0.4c1,1.4,1.5,3,1.4,4.9c0,0.4-0.1,0.7-0.1,1
		s-0.1,0.7-0.2,1.1s-0.3,0.8-0.6,1C189,158.4,188.6,158.5,188.2,158.5z M188.2,157.2c0.5,0,0.7-0.5,0.9-1.3c0.1-0.9,0.2-1.6,0.1-2.4
		c0-1.2-0.4-2.1-1.1-2.9c0-0.1,0-0.1,0,0c0,0-0.1,0.1-0.1,0.4c-0.1,0.3-0.1,0.6-0.2,0.9c-0.1,0.3-0.1,0.5-0.1,0.5
		c-0.2,1-0.3,1.7-0.3,2.2c0,0,0,0.1,0,0.3c0,0.2,0,0.3,0,0.5c0,0.1,0,0.3,0,0.5c0,0.2,0,0.4,0.1,0.5c0,0.1,0.1,0.3,0.2,0.4
		c0.1,0.1,0.1,0.3,0.2,0.3C187.9,157.1,188.1,157.2,188.2,157.2z M190.5,143.4c1.7-1.5,3.1-3.2,4.1-5.3c0,0,0.1-0.1,0.1-0.1
		c0,0,0.1-0.1,0.1-0.1c0.2-0.4,0.4-1,0.8-1.8c0.4-0.8,0.7-1.5,0.9-2c0.2-0.5,0.4-1.1,0.6-1.9c0.2-0.8,0.3-1.6,0.4-2.3
		c-0.1,0.1-0.3,0.3-0.5,0.5c-0.2,0.3-0.4,0.4-0.6,0.5c-1.9,3-3.2,5.6-4,7.6c-0.1,0.1-0.1,0.2-0.2,0.2c0,0.3-0.2,0.7-0.4,1.2
		c-0.2,0.5-0.4,0.9-0.4,1.2c-0.2,0.2-0.4,0.6-0.6,1.1C190.7,143,190.6,143.3,190.5,143.4z"/>
	<path class="st0" d="M196.8,158.5c-0.9-0.1-1.6-0.7-2-1.7s-0.6-2.2-0.5-3.4c0-0.3,0.1-0.7,0.2-1.2c0.1-0.6,0.2-1,0.2-1.2
		c0-0.2,0.1-0.3,0.1-0.5s0.1-0.3,0.1-0.4v-0.4c0-0.1,0-0.3,0.1-0.5c0.1-0.2,0.2-0.4,0.3-0.7c0.1-0.2,0.2-0.4,0.2-0.6
		c0.8-3,2.2-6.7,3.9-11c1.1-2.4,2.5-4.7,4.1-6.8l0,0c0.1,0,0.1-0.1,0.1-0.1c0.3-0.4,0.6-0.7,1.1-0.9c0.5-0.3,0.9-0.4,1.3-0.3
		c0.1,0,0.3,0.1,0.4,0.2c0.1,0.1,0.3,0.2,0.4,0.4s0.3,0.3,0.3,0.3c0.1,1.1-0.2,2.6-0.8,4.4c-0.6,1.6-1.1,2.8-1.7,3.8
		c-0.8,1.6-1.4,2.6-1.7,3.1c0,0-0.1,0.1-0.1,0.1c0,0-0.1,0.1-0.1,0.1s-0.1,0.1-0.1,0.1c-0.1,0.1-0.1,0.2-0.2,0.4
		c-0.1,0.2-0.2,0.3-0.2,0.4c-0.5,0.7-1.2,1.4-2.1,2.2c-0.1,0.1-0.2,0.2-0.4,0.3c-0.2,0.1-0.3,0.3-0.4,0.3c-0.1,0-0.2,0.1-0.3,0.1
		s-0.3,0.1-0.4,0.2c-0.1,0-0.2,0.1-0.3,0.2c-0.1,0.1-0.2,0.2-0.2,0.3c0,0.1,0,0.2,0,0.3s0,0.2,0,0.3c0,0.1-0.1,0.2-0.1,0.3
		c-0.1,0.1-0.1,0.3-0.1,0.3l-0.1,0.6c-0.3,0.8-0.5,1.4-0.6,1.7c0.5,0,0.9-0.1,1.3-0.3c0.4-0.1,0.9-0.4,1.3-0.7
		c0.5-0.3,0.8-0.5,1-0.7c0.2-0.2,0.6-0.5,1.1-1c0.5-0.5,0.8-0.8,0.9-0.8c0.2-0.2,0.3-0.3,0.4-0.4c0.3-0.3,0.5-0.4,0.6-0.5
		c0.1-0.1,0.2-0.2,0.4-0.4s0.4-0.3,0.5-0.5s0.3-0.2,0.5-0.3c0.2-0.1,0.4,0,0.6,0c0.2,0.3,0.2,0.5,0.1,0.6c-0.1,0.1-0.3,0.3-0.6,0.6
		s-0.5,0.4-0.5,0.5c-1,0.9-1.8,1.6-2.3,2c-1.2,1.1-2.2,1.8-3,2.2c-0.7,0.4-1.5,0.5-2.3,0.4c1,1.4,1.5,3,1.4,4.9c0,0.4-0.1,0.7-0.1,1
		s-0.1,0.7-0.2,1.1s-0.3,0.8-0.6,1C197.5,158.4,197.2,158.5,196.8,158.5z M196.8,157.2c0.5,0,0.7-0.5,0.9-1.3
		c0.1-0.9,0.2-1.6,0.1-2.4c0-1.2-0.4-2.1-1.1-2.9c0-0.1,0-0.1,0,0c0,0-0.1,0.1-0.1,0.4c-0.1,0.3-0.1,0.6-0.2,0.9
		c-0.1,0.3-0.1,0.5-0.1,0.5c-0.2,1-0.3,1.7-0.3,2.2c0,0,0,0.1,0,0.3c0,0.2,0,0.3,0,0.5c0,0.1,0,0.3,0,0.5c0,0.2,0,0.4,0.1,0.5
		c0,0.1,0.1,0.3,0.2,0.4c0.1,0.1,0.1,0.3,0.2,0.3C196.5,157.1,196.6,157.2,196.8,157.2z M199,143.4c1.7-1.5,3.1-3.2,4.1-5.3
		c0,0,0.1-0.1,0.1-0.1c0,0,0.1-0.1,0.1-0.1c0.2-0.4,0.4-1,0.8-1.8c0.4-0.8,0.7-1.5,0.9-2c0.2-0.5,0.4-1.1,0.6-1.9
		c0.2-0.8,0.3-1.6,0.4-2.3c-0.1,0.1-0.3,0.3-0.5,0.5c-0.2,0.3-0.4,0.4-0.6,0.5c-1.9,3-3.2,5.6-4,7.6c-0.1,0.1-0.1,0.2-0.2,0.2
		c0,0.3-0.2,0.7-0.4,1.2c-0.2,0.5-0.4,0.9-0.4,1.2c-0.2,0.2-0.4,0.6-0.6,1.1C199.2,143,199.1,143.3,199,143.4z"/>
	<path class="st0" d="M206.5,152.1c-0.9,0.4-1.8,0.3-2.5-0.5c-0.7-0.7-1-1.6-1-2.5c0-0.3,0-0.6,0.1-0.9c0.1-0.3,0.2-0.7,0.4-1.2
		c0.2-0.5,0.3-0.9,0.4-1c0-0.1,0.2-0.4,0.4-0.9l0.4-0.8c0.5-1,0.8-1.7,1-2.1c0.2-0.3,0.4-0.5,0.8-0.7c0.3-0.1,0.6,0,0.9,0.3l0,0v0.2
		c0,0.2,0,0.5-0.2,0.9c-0.2,0.6-0.6,1.3-1.2,2.2c-0.3,0.5-0.5,1.1-0.8,1.9c-0.4,1.1-0.6,1.8-0.6,2.1c0,0.1,0,0.3-0.1,0.6
		s-0.1,0.5-0.1,0.7s0,0.3,0.1,0.5c0.1,0.2,0.3,0.3,0.5,0.4c0.5,0.2,1.1-0.1,1.7-0.8c0.3-0.4,0.7-0.9,1.2-1.6c0.6-0.7,0.9-1.1,1-1.2
		c0.6-0.8,1.7-1.8,3.1-3c0.7-0.6,1.2-1,1.4-1c0.2-0.1,0.4,0,0.5,0c0.2,0.3,0.3,0.5,0.2,0.6c-0.1,0.1-0.3,0.3-0.6,0.6
		c-0.3,0.3-0.5,0.4-0.5,0.5c-1,0.9-1.9,1.8-2.8,2.7c-0.1,0.1-0.2,0.2-0.3,0.4c-0.1,0.1-0.2,0.2-0.2,0.3c-0.3,0.3-0.6,0.7-0.9,1.2
		C207.9,151.1,207.1,151.8,206.5,152.1z M207.6,139.3c-0.5,0.1-0.9,0-1.2-0.5c-0.3-0.5-0.2-0.9,0.2-1.4c0.1,0,0.3,0,0.4-0.2
		c0.2-0.2,0.3-0.3,0.4-0.3c0.2,0,0.4,0,0.7,0.2c0.2,0.2,0.4,0.3,0.5,0.5c0,0.3-0.1,0.6-0.3,1C208.1,139,207.9,139.2,207.6,139.3z"/>
	<path class="st0" d="M216.2,151.9c-1.4,0.7-2.7,0.6-3.8-0.3c-1.1-1-1.6-2.2-1.4-3.7c0.1-0.5,0.3-1.4,0.8-2.5
		c0.2-0.5,0.7-1.2,1.5-1.8c0.8-0.7,1.2-1,1.3-1.1c1.3-0.6,2.5-0.5,3.6,0.6c0.5,1,0.5,1.6,0.2,1.9c-0.4,0.1-0.7-0.2-0.9-0.7
		c-0.2-0.5-0.3-0.8-0.5-0.8c-1,0.1-1.9,0.9-2.7,2.3c-0.8,1.4-1.3,2.4-1.3,3.2c-0.2,1.2,0,1.9,0.6,2.1s1.3,0.1,2.3-0.4
		c0.4-0.2,0.9-0.7,1.6-1.5c0.7-0.8,1.1-1.2,1.2-1.3c0.1-0.1,0.4-0.4,0.8-0.9c0.4-0.5,0.8-0.8,1-1l0.1-0.1c0,0,0.2-0.2,0.5-0.5
		c0.3-0.3,0.5-0.5,0.7-0.6c0.7-0.6,1.2-1,1.4-1c0.2,0,0.4,0,0.5,0c0.2,0.3,0.2,0.5,0.2,0.6c-0.1,0.1-0.3,0.3-0.6,0.6
		s-0.5,0.4-0.5,0.5c-1.2,1.1-2.3,2.2-3.4,3.3c-0.2,0.2-0.5,0.6-0.9,1.1c-0.4,0.5-0.8,1-1.2,1.4C216.9,151.5,216.6,151.8,216.2,151.9
		z"/>
	<path class="st0" d="M224.9,152c-1.3,0.5-2.3,0.4-3.1-0.4c-0.8-0.8-1-1.9-0.7-3.4c0.4-1.8,1-3.5,1.9-4.9c0.6-1,1.3-1.7,2-2.2
		c0.5-0.3,1.1-0.4,1.7-0.3c0.7,0.1,1.2,0.5,1.5,1.1c-0.1,2.5-1.7,4.2-4.7,5.1c-0.4,1.3-0.6,2.3-0.6,2.8c0,0,0,0.2,0,0.5
		c0,0.3,0,0.5,0,0.6c0.1,0.6,0.9,0.5,2.3-0.3c0.4-0.2,1.1-0.8,2.3-1.8c0.5-0.4,1.1-1.1,2-2c0.9-1,1.4-1.6,1.7-1.8
		c0.6-0.6,1.1-1,1.3-1c0.2-0.1,0.4,0,0.5,0c0.2,0.1,0.2,0.2,0.3,0.3c0,0.1,0,0.3-0.1,0.4c-0.1,0.1-0.2,0.2-0.3,0.3
		c-0.1,0.1-0.2,0.2-0.4,0.3c-0.1,0.1-0.2,0.2-0.3,0.3c-0.5,0.6-1.5,1.7-2.9,3.1c-0.9,1-1.7,1.7-2.4,2.2
		C226.2,151.3,225.5,151.7,224.9,152z M224.1,145.7c0.7-0.3,1.3-0.7,2-1.3c0.6-0.6,1-1.2,1.2-1.8c0.1-0.4,0.1-0.6,0.1-0.7
		c-0.1-0.3-0.3-0.4-0.6-0.3c-0.3,0.1-0.5,0.2-0.6,0.4c-0.2,0.4-0.3,0.6-0.3,0.6c-0.3,0.3-0.5,0.6-0.7,0.9s-0.4,0.7-0.6,1.2
		C224.3,145.2,224.2,145.5,224.1,145.7z"/>
	<path class="st0" d="M243.9,155c-1.8-0.2-3.2-1-4.1-2.5c-0.2-0.4-0.4-0.7-0.4-1c0-0.2,0-0.4,0-0.5c0-0.1,0-0.3,0-0.4
		c0-0.1-0.1-0.2-0.2-0.3c0.1-2,0.3-3.4,0.5-4c0-0.4,0-0.9,0.2-1.6c0.2-0.7,0.3-1.2,0.3-1.5c0.2-0.3,0.3-0.7,0.4-1.3
		c0.1-0.1,0.3-0.7,0.7-1.7c0.4-1,0.7-1.7,1-2.1c0-0.2,0-0.3,0.1-0.5c0.1-0.2,0.2-0.3,0.2-0.4c0.4-0.3,0.6-0.7,0.7-1.2
		c0.1-0.1,0.3-0.2,0.4-0.4c0.1-0.2,0.3-0.3,0.4-0.4c0-0.5,0.3-0.8,0.7-1c0.7-1.2,2-2.4,3.7-3.7c0.2,0,0.5-0.1,0.8-0.3
		c0.3-0.2,0.6-0.2,0.8-0.2c0.5-0.1,1.1,0,1.7,0.2c1.3,0.4,2.2,1.1,2.8,2c0.4,0.7,0.4,1.9,0,3.8c-1.1,1.7-2.1,2.4-2.9,2
		c0-0.1,0.1-0.2,0.3-0.3c0.2-0.1,0.3-0.2,0.3-0.3c0.6-0.9,1-2,1-3.4c0-0.7-0.1-1.3-0.4-1.7c-0.3-0.5-0.8-0.7-1.4-0.7
		c-0.7,0.1-1.3,0.4-1.8,0.9c-0.1,0.1-0.2,0.2-0.3,0.4c-0.1,0.2-0.2,0.3-0.3,0.4c-0.1,0.1-0.2,0.2-0.4,0.3c-0.1,0.1-0.2,0.2-0.3,0.2
		c-0.4,0.4-0.9,1.1-1.4,1.9s-0.9,1.4-1,1.6c-0.1,0.2-0.3,0.6-0.6,1c-0.3,0.5-0.5,0.9-0.5,1.3c-0.7,1.3-1.1,2.4-1.2,3.3
		c-0.4,0.6-0.8,1.6-1,2.9c-0.1,0.7-0.2,1.2-0.2,1.6c0,0.3,0,0.6-0.1,0.9c-0.4,1.7-0.5,3-0.4,3.6c0.1,0.4,0.3,0.9,0.8,1.6
		c1.4,0.7,3.1,0.2,5.3-1.3c1-0.7,1.7-1.3,2.3-2c0.3-0.3,0.6-0.7,0.9-1.3s0.6-1,0.8-1.2c0.1,0,0.2,0,0.2,0.1c0,0,0.1,0.1,0.2,0.1
		c-0.3,1.1-0.9,2.3-1.9,3.4c-1,1.1-2.1,2-3.3,2.7C246,154.7,244.8,155.1,243.9,155z"/>
	<path class="st0" d="M266.1,143.7c0.3,0.2,0.3,0.5,0,0.8c-0.1,0.2-0.3,0.4-0.6,0.7c-0.3,0.3-0.5,0.4-0.5,0.5
		c-0.1,0.1-0.2,0.3-0.3,0.4c-0.1,0.1-0.3,0.3-0.5,0.4c-0.2,0.1-0.3,0.3-0.4,0.3c-0.5,0.5-1,0.8-1.4,1.1c-0.1,0-0.2,0.1-0.5,0.3
		c-0.3,0.1-0.4,0.2-0.5,0.3c-0.1,0-0.3,0.1-0.6,0.2c-0.3,0.1-0.5,0-0.6-0.1l-0.3,0.5c-0.2,0.3-0.6,0.8-1,1.4
		c-0.9,1.1-1.8,1.9-2.6,2.3c-0.8,0.1-1.5-0.2-2-0.8c-0.5-0.6-0.8-1.3-0.9-2.2c-0.1-0.9,0.2-2.3,1-4.1c0.5-0.6,1-1.3,1.7-1.8
		c0.4-0.3,0.8-0.5,1.2-0.8c0.5-0.2,1-0.4,1.6-0.5c0.6-0.1,1.2,0.1,1.6,0.5c0.5-0.1,1,0.1,1.4,0.8c0,0.2,0,0.3,0,0.4
		c0,0.1,0,0.3-0.1,0.6c-0.1,0.3-0.1,0.4-0.1,0.5c-0.1,0.4-0.3,0.8-0.5,1.3l-0.1,0.2c0.3,0,0.6-0.1,1-0.3c0.3-0.2,0.6-0.4,0.8-0.7
		c0.1-0.1,0.2-0.2,0.3-0.2l0.7-0.7c0.5-0.5,0.9-0.8,1.2-1c0.2-0.1,0.3-0.2,0.4-0.2C265.8,143.6,266,143.6,266.1,143.7z M257.5,150
		c0.2-0.3,0.5-0.6,0.9-1.1c0.4-0.5,0.6-0.8,0.8-1c-0.1,0.1-0.3-0.3-0.6-1.1c-0.1-0.2-0.1-0.3-0.1-0.3c-0.1-0.2-0.1-0.8-0.2-1.7
		c-0.3-0.1-0.8,0.3-1.7,1.1c-0.4,0.4-0.8,1-1.2,1.9c-0.1,0.2-0.2,0.6-0.3,1.4v1.3c0,0.4,0.1,0.6,0.3,0.7c0.1,0.1,0.3,0.1,0.5,0
		C256.3,151.1,256.8,150.7,257.5,150z M260.5,145.6c0.2-0.6,0.2-1.1,0.1-1.3l0,0c-0.1-0.2-0.3-0.3-0.4-0.4c-0.2-0.1-0.3,0-0.5,0.1
		v1.3c0.1,0.9,0.2,1.4,0.2,1.6L260.5,145.6z"/>
	<path class="st0" d="M283.5,143.7c0.3,0.2,0.3,0.5-0.1,0.9l-0.1,0.1c-0.1,0.2-0.4,0.6-0.9,1.2l-0.6,0.6c-0.1,0.1-0.2,0.3-0.3,0.5
		l-0.1,0.1l0,0l-0.1,0.2c-0.1,0.1-0.1,0.2-0.2,0.3s-0.1,0.2-0.1,0.3l-0.2,0.2l-0.2,0.2c-0.1,0.1-0.1,0.2-0.2,0.3
		c-0.1,0.1-0.1,0.2-0.2,0.2c-0.1,0.1-0.2,0.3-0.4,0.5c-0.1,0.1-0.2,0.2-0.3,0.3c-0.2,0.1-0.3,0.2-0.3,0.2c-1,1-1.6,1.7-2,1.8
		c-0.6,0.3-1.1,0.3-1.6,0c-0.4-0.3-0.7-0.8-0.9-1.4c-0.1-0.3,0-0.9,0.2-1.7c0.2-0.8,0.4-1.6,0.6-2.2c0.2-0.6,0.2-0.9,0.1-0.9
		c-0.2,0-0.4,0.1-0.6,0.4c-0.3,0.3-0.6,0.7-1.1,1.3c-0.5,0.6-0.9,1.1-1.3,1.5c-0.3,0.4-0.6,0.8-0.9,1.2c0,0,0,0.1-0.1,0.2
		c-0.1,0.1-0.1,0.2-0.2,0.3c-0.1,0.1-0.1,0.2-0.2,0.3c-0.1,0.1-0.1,0.2-0.2,0.3c0,0.1-0.1,0.1-0.1,0.1c-1.1,0-1.3-1.2-0.7-3.5
		c0.1-0.2,0.2-0.5,0.3-0.9c0.1-0.4,0.2-0.7,0.3-1c0.1-0.3,0.2-0.6,0.3-0.9c0.1-0.3,0.1-0.6,0.1-0.8c0-0.2-0.1-0.3-0.3-0.4
		c-0.2-0.1-0.7,0.3-1.5,1s-1.3,1.5-1.7,2.1c-0.3,0.5-0.7,1.1-1.3,2c-0.7,1.4-1,2.1-1.1,2.1c-1-0.1-1.4-0.6-1.3-1.7
		c0-0.1,0.1-0.3,0.2-0.8c0.7-3.3,1.2-5.6,1.7-6.8c0-0.1,0.1-0.2,0.1-0.3c0.1-0.1,0.1-0.2,0.1-0.3c0-0.1,0-0.2,0-0.3
		c0.2-0.1,0.3-0.4,0.4-0.8c0.1-0.5,0.3-0.7,0.5-0.8c0.4-0.1,0.7,0.1,1,0.6c0.2,0.4,0.3,0.9,0.1,1.4c0,0.1,0,0.2-0.1,0.4
		c-0.1,0.1-0.1,0.3-0.1,0.4c0,0.7-0.2,1.5-0.5,2.3c0.2-0.1,0.7-0.5,1.4-1.2c0.7-0.7,1.4-1,2-0.9c1.1,0.2,1.7,1.3,1.7,3.2
		c0,0.8-0.2,1.6-0.4,2.2c0.2-0.1,0.8-0.7,1.7-1.8c0.9-1.1,1.6-1.6,2.1-1.5c0.2,0.1,0.4,0.2,0.7,0.5c0.3,0.3,0.4,0.5,0.4,0.7
		c0.1,0.3-0.1,1-0.5,2.2c-0.4,1.2-0.6,1.8-0.7,2c-0.1,0.9,0,1.4,0.2,1.5c0.2,0,0.7-0.3,1.6-1c0.6-0.5,1-1,1.3-1.4v0l0.1-0.1l1.2-1.6
		c0,0,0,0,0,0c0.7-1.1,1.3-1.9,1.7-2.3c0.4-0.5,0.8-0.8,1.2-0.9C283.2,143.6,283.4,143.6,283.5,143.7z"/>
	<path class="st0" d="M300.4,143.7c0.3,0.2,0.3,0.5-0.1,0.9l-0.1,0.1c-0.1,0.2-0.4,0.6-0.9,1.2l-0.6,0.6c-0.1,0.1-0.2,0.3-0.3,0.5
		l-0.1,0.1l0,0l-0.1,0.2c-0.1,0.1-0.1,0.2-0.2,0.3s-0.1,0.2-0.1,0.3l-0.2,0.2l-0.2,0.2c-0.1,0.1-0.1,0.2-0.2,0.3
		c-0.1,0.1-0.1,0.2-0.2,0.2c-0.1,0.1-0.2,0.3-0.4,0.5c-0.1,0.1-0.2,0.2-0.3,0.3c-0.2,0.1-0.3,0.2-0.3,0.2c-1,1-1.6,1.7-2,1.8
		c-0.6,0.3-1.1,0.3-1.6,0c-0.4-0.3-0.7-0.8-0.9-1.4c-0.1-0.3,0-0.9,0.2-1.7c0.2-0.8,0.4-1.6,0.6-2.2c0.2-0.6,0.2-0.9,0.1-0.9
		c-0.2,0-0.4,0.1-0.6,0.4c-0.3,0.3-0.6,0.7-1.1,1.3c-0.5,0.6-0.9,1.1-1.3,1.5c-0.3,0.4-0.6,0.8-0.9,1.2c0,0,0,0.1-0.1,0.2
		c-0.1,0.1-0.1,0.2-0.2,0.3c-0.1,0.1-0.1,0.2-0.2,0.3c-0.1,0.1-0.1,0.2-0.2,0.3c0,0.1-0.1,0.1-0.1,0.1c-1.1,0-1.3-1.2-0.7-3.5
		c0.1-0.2,0.2-0.5,0.3-0.9c0.1-0.4,0.2-0.7,0.3-1c0.1-0.3,0.2-0.6,0.3-0.9c0.1-0.3,0.1-0.6,0.1-0.8c0-0.2-0.1-0.3-0.3-0.4
		c-0.2-0.1-0.7,0.3-1.5,1s-1.3,1.5-1.7,2.1c-0.3,0.5-0.7,1.1-1.3,2c-0.7,1.4-1,2.1-1.1,2.1c-1-0.1-1.4-0.6-1.3-1.7
		c0-0.1,0.1-0.3,0.2-0.8c0.7-3.3,1.2-5.6,1.7-6.8c0-0.1,0.1-0.2,0.1-0.3c0.1-0.1,0.1-0.2,0.1-0.3c0-0.1,0-0.2,0-0.3
		c0.2-0.1,0.3-0.4,0.4-0.8c0.1-0.5,0.3-0.7,0.5-0.8c0.4-0.1,0.7,0.1,1,0.6c0.2,0.4,0.3,0.9,0.1,1.4c0,0.1,0,0.2-0.1,0.4
		c-0.1,0.1-0.1,0.3-0.1,0.4c0,0.7-0.2,1.5-0.5,2.3c0.2-0.1,0.7-0.5,1.4-1.2c0.7-0.7,1.4-1,2-0.9c1.1,0.2,1.7,1.3,1.7,3.2
		c0,0.8-0.2,1.6-0.4,2.2c0.2-0.1,0.8-0.7,1.7-1.8c0.9-1.1,1.6-1.6,2.1-1.5c0.2,0.1,0.4,0.2,0.7,0.5c0.3,0.3,0.4,0.5,0.4,0.7
		c0.1,0.3-0.1,1-0.5,2.2c-0.4,1.2-0.6,1.8-0.7,2c-0.1,0.9,0,1.4,0.2,1.5c0.2,0,0.7-0.3,1.6-1c0.6-0.5,1-1,1.3-1.4v0l0.1-0.1l1.2-1.6
		c0,0,0,0,0,0c0.7-1.1,1.3-1.9,1.7-2.3c0.4-0.5,0.8-0.8,1.2-0.9C300.1,143.6,300.3,143.6,300.4,143.7z"/>
	<path class="st0" d="M299.2,152.3c-0.5,0.1-0.9,0-1.3-0.3c-0.4-0.3-0.6-0.6-0.8-1c-0.2-0.8,0-2.1,0.8-3.8c0.1-0.1,0.2-0.3,0.3-0.6
		c0.1-0.3,0.2-0.5,0.3-0.6c0.2-0.3,0.5-0.9,0.9-1.8c0.4-0.9,0.8-1.5,1.1-2c0-0.1,0.1-0.2,0.3-0.3c0.2-0.1,0.4,0,0.6,0.1
		c0.2,0.1,0.4,0.3,0.4,0.5c0.1,0.3,0.1,0.7-0.2,1.4l-0.5,1.1c0,0-0.1,0.2-0.2,0.5c-0.1,0.3-0.2,0.5-0.3,0.7c0,0.1-0.1,0.2-0.2,0.3
		c-0.1,0.1-0.1,0.2-0.2,0.3c0,0-0.1,0.2-0.3,0.5c-0.2,0.3-0.3,0.5-0.3,0.7c-0.2,0.5-0.5,1.2-0.8,1.9c-0.2,0.2-0.2,0.5-0.2,0.8
		c0,0.3,0.2,0.4,0.6,0.3c0.2-0.1,0.4-0.2,0.6-0.4c0.2-0.2,0.4-0.3,0.5-0.5c0.1-0.2,0.3-0.4,0.5-0.6c0.2-0.3,0.3-0.4,0.4-0.5
		c0.3-0.3,0.6-0.8,1.1-1.5c0.5-0.7,0.8-1.2,1.1-1.5c0.5-0.9,0.9-1.6,1.4-2c0.2-0.4,0.5-0.8,0.9-1.4c0.4-0.7,0.8-1.1,1.1-1.2
		c0.5,0,0.7,0.2,0.9,0.6c0.1,0.3-0.2,0.8-0.8,1.7c-0.3,0.9-0.7,1.7-1.1,2.3c-0.1,0.2-0.2,0.5-0.3,0.9c-0.1,0.4-0.2,0.7-0.2,0.8
		c-0.2,0.5-0.3,1.1-0.5,1.8l-0.1,0.9c0,0,0,0.1,0,0.3c0,0.2,0,0.3,0,0.4c0,0.1,0.1,0.2,0.1,0.2c0.1,0.1,0.2,0.1,0.4,0
		c0.2,0,0.6-0.5,1.4-1.3c0.5-0.6,1-1.1,1.5-1.8l0.7-0.9c0.1-0.1,0.2-0.2,0.4-0.4c0.2-0.2,0.3-0.3,0.4-0.4c0.1-0.2,0.3-0.4,0.7-0.8
		c0.3-0.3,0.6-0.6,0.8-0.8c0.2-0.2,0.4-0.4,0.7-0.7c0.3-0.2,0.6-0.4,0.9-0.5c0.2-0.1,0.4,0,0.5,0c0.2,0.1,0.2,0.3,0.2,0.4
		c0,0.1-0.1,0.3-0.2,0.4c-0.2,0.2-0.3,0.3-0.5,0.4c-0.2,0.1-0.3,0.2-0.5,0.4c-0.2,0.1-0.3,0.2-0.3,0.3c-0.2,0.2-0.4,0.5-0.7,0.8
		c-0.5,0.4-0.8,0.7-0.9,0.8l-1.7,2.2c0,0-0.5,0.5-1.3,1.4c-0.1,0.1-0.4,0.3-0.8,0.7c-0.8,0.7-1.5,1-2,0.8c-0.4-0.2-0.6-0.6-0.8-1.1
		c-0.1-0.8-0.1-1.4,0-1.7c0-0.3,0.2-0.9,0.4-1.7s0.4-1.3,0.4-1.5c-1.2,2-2.3,3.5-3.4,4.6c-0.1,0-0.2,0.1-0.3,0.1
		c-0.1,0.1-0.2,0.1-0.2,0.2c-0.1,0.1-0.1,0.2-0.2,0.3c-0.1,0.1-0.2,0.2-0.2,0.2c0,0-0.1,0.1-0.1,0.1c-0.1,0-0.1,0-0.1,0
		C299.5,152.1,299.3,152.3,299.2,152.3z"/>
	<path class="st0" d="M317.3,153.4c-0.4,0.3-0.8,0.3-1.2,0.2c-0.4-0.2-0.6-0.5-0.6-1c-0.1-0.5,0-1.2,0.2-2.1
		c0.2-0.8,0.4-1.4,0.6-1.8c0-0.1,0.1-0.1,0.1-0.2c0-0.1,0.1-0.2,0.1-0.3c0-0.1,0.1-0.2,0.1-0.2c0.1-0.2,0.2-0.4,0.3-0.7
		c0.1-0.3,0.3-0.6,0.3-0.8c0.1-0.2,0.1-0.5,0.1-0.7c0-0.6-0.4-0.7-1.2-0.2c-0.3,0.2-0.7,0.5-1.4,1.1c-0.2,0.2-0.4,0.4-0.7,0.8
		c-0.2,0.4-0.4,0.6-0.5,0.7c-0.6,0.7-0.9,1.4-1.1,2c-0.2,0.1-0.3,0.4-0.5,0.9c-0.2,0.5-0.3,0.8-0.5,0.9c-0.8-0.1-1.3-0.4-1.4-1
		c0-0.1,0-0.2,0-0.3c0-0.1,0.1-0.2,0.1-0.4c0.1-0.2,0.1-0.3,0.1-0.4c0-0.1,0.2-0.6,0.4-1.6c0.3-1,0.5-1.7,0.7-2.2
		c0.9-2,1.5-3.2,1.6-3.5c0.4-1,0.7-1.5,1.2-1.5c0.1,0,0.1,0,0.2,0c0.4,0.1,0.6,0.4,0.7,1c0.1,0.4,0,0.9-0.3,1.7
		c-0.3,0.8-0.4,1.3-0.4,1.4c0.2,0,0.6-0.3,1.3-0.8s1.3-0.8,1.7-0.7c0.8,0.1,1.3,0.7,1.4,1.7c0.1,1.1,0,1.9-0.5,2.6
		c0,0,0,0.1-0.1,0.1c-0.1,0.1-0.1,0.1-0.1,0.1c0,0.1-0.1,0.2-0.1,0.3s0,0.3,0,0.3c0,0.1-0.1,0.2-0.3,0.5c-0.2,0.3-0.3,0.5-0.4,0.7
		c0,0.1-0.1,0.3-0.2,0.6c-0.1,0.2-0.2,0.4-0.2,0.5c0,0.1-0.1,0.3-0.2,0.5s-0.1,0.3-0.1,0.4c0.1,0,0.2,0,0.4-0.1
		c0.2-0.1,0.3-0.2,0.4-0.3c0.1-0.1,0.3-0.3,0.4-0.5c0.2-0.2,0.3-0.3,0.3-0.3c0.6-0.6,1.1-1,1.4-1.4c0.1-0.1,0.3-0.4,0.6-0.7
		c0.1-0.1,0.2-0.3,0.4-0.5c0.2-0.2,0.3-0.3,0.4-0.4c0.3-0.3,0.6-0.6,1.1-1.2c0.1-0.1,0.2-0.2,0.4-0.4c0.2-0.2,0.3-0.3,0.4-0.5
		c0.1-0.1,0.2-0.3,0.4-0.6s0.4-0.5,0.5-0.7c0.1-0.1,0.3-0.3,0.5-0.5s0.5-0.3,0.7-0.4c0.2-0.1,0.4,0,0.5,0c0.2,0.3,0.3,0.5,0.2,0.6
		c-0.1,0.1-0.3,0.3-0.6,0.6c-0.3,0.3-0.5,0.4-0.5,0.5l-0.2,0.1c-0.3,0.4-0.6,0.8-1,1.3c-0.4,0.4-0.9,0.9-1.5,1.5
		c-0.6,0.6-1,1-1.2,1.2c-0.5,0.5-1.1,1.1-1.8,1.9C318.1,152.6,317.5,153.3,317.3,153.4z"/>
	<path class="st0" d="M326.3,152.1c-0.9,0.4-1.8,0.3-2.5-0.5c-0.7-0.7-1-1.6-1-2.5c0-0.3,0-0.6,0.1-0.9c0.1-0.3,0.2-0.7,0.4-1.2
		c0.2-0.5,0.3-0.9,0.4-1c0-0.1,0.2-0.4,0.4-0.9l0.4-0.8c0.5-1,0.8-1.7,1-2.1c0.2-0.3,0.4-0.5,0.8-0.7c0.3-0.1,0.6,0,0.9,0.3l0,0v0.2
		c0,0.2,0,0.5-0.2,0.9c-0.2,0.6-0.6,1.3-1.2,2.2c-0.3,0.5-0.5,1.1-0.8,1.9c-0.4,1.1-0.6,1.8-0.6,2.1c0,0.1,0,0.3-0.1,0.6
		s-0.1,0.5-0.1,0.7s0,0.3,0.1,0.5c0.1,0.2,0.3,0.3,0.5,0.4c0.5,0.2,1.1-0.1,1.7-0.8c0.3-0.4,0.7-0.9,1.2-1.6c0.6-0.7,0.9-1.1,1-1.2
		c0.6-0.8,1.7-1.8,3.1-3c0.7-0.6,1.2-1,1.4-1c0.2-0.1,0.4,0,0.5,0c0.2,0.3,0.3,0.5,0.2,0.6c-0.1,0.1-0.3,0.3-0.6,0.6
		c-0.3,0.3-0.5,0.4-0.5,0.5c-1,0.9-1.9,1.8-2.8,2.7c-0.1,0.1-0.2,0.2-0.3,0.4c-0.1,0.1-0.2,0.2-0.2,0.3c-0.3,0.3-0.6,0.7-0.9,1.2
		C327.8,151.1,327,151.8,326.3,152.1z M327.4,139.3c-0.5,0.1-0.9,0-1.2-0.5c-0.3-0.5-0.2-0.9,0.2-1.4c0.1,0,0.3,0,0.4-0.2
		c0.2-0.2,0.3-0.3,0.4-0.3c0.2,0,0.4,0,0.7,0.2c0.2,0.2,0.4,0.3,0.5,0.5c0,0.3-0.1,0.6-0.3,1C328,139,327.7,139.2,327.4,139.3z"/>
	<path class="st0" d="M333.5,153.9c-0.7,0-1.4-0.5-2-1.3c-0.4-0.6-0.4-1.6,0-3.1c0-0.2,0-0.4,0-0.8s0-0.6,0-0.8
		c0-0.1,0.1-0.3,0.2-0.5c0.1-0.2,0.2-0.4,0.2-0.6c0.2-0.5,0.5-1.3,0.8-2.3c0.3-1,0.6-1.6,0.7-2c0-0.1,0.2-0.6,0.6-1.4
		c0.4-0.8,0.6-1.4,0.6-1.8c-0.1-0.1-0.5-0.1-1.2,0c-0.7,0-1,0.1-1.1,0.1c-0.1,0-0.2,0-0.5,0c-0.3,0-0.5,0-0.8,0
		c-0.2,0-0.4,0-0.7-0.1c-0.2,0-0.4-0.1-0.4-0.2c-0.1-0.2-0.1-0.4,0-0.7c0.1-0.3,0.2-0.4,0.4-0.5c0.3-0.2,0.8-0.2,1.4,0
		c0.2,0.1,0.8,0.1,1.7,0.1c0.8,0,1.3,0,1.5,0c0.3,0,0.6-0.2,0.8-0.5c0.2-0.3,0.4-0.5,0.5-0.8c0.1-0.2,0.2-0.6,0.4-1
		c0.1-0.5,0.2-0.7,0.3-0.8c0.1-0.2,0.2-0.6,0.5-1.1s0.4-0.9,0.5-1.2c0,0,0.1-0.2,0.3-0.5c0.1-0.3,0.3-0.5,0.4-0.7
		c0.1-0.2,0.3-0.3,0.4-0.3c0.5-0.1,0.8,0.2,1,0.8c0,0.4,0,0.7,0,0.9c0,0.2-0.1,0.5-0.2,0.9c-0.1,0.4-0.2,0.7-0.2,0.9
		c0,0.1-0.1,0.3-0.3,0.4c0,0.4-0.2,1-0.6,1.7s-0.6,1.2-0.6,1.5c0.3,0.1,0.9,0,1.6-0.1c0.7-0.1,1.3-0.2,1.7-0.1
		c0.1,0,0.3,0.1,0.5,0.3c0.2,0.2,0.3,0.3,0.3,0.5c0,0.1-0.1,0.2-0.2,0.2c-0.1,0-0.3,0.1-0.5,0.1h-0.3l-3.5,0.6
		c-0.1,0.1-0.2,0.5-0.5,1.1c-0.3,0.6-0.5,1.1-0.7,1.3c-0.1,0.6-0.4,1.3-0.8,2.3c-0.4,1-0.7,1.6-0.8,1.9c-0.1,0.3-0.3,0.8-0.6,1.4
		c-0.3,0.6-0.5,1.2-0.7,1.7c-0.2,0.5-0.3,1-0.4,1.5c-0.1,0.8,0,1.3,0.2,1.4c0.3,0.2,0.8,0,1.3-0.6c0.7-0.6,1.1-1,1.3-1.2
		c0.1-0.1,0.2-0.3,0.5-0.6c0.3-0.3,0.4-0.6,0.5-0.8c0.1-0.1,0.2-0.3,0.4-0.5s0.4-0.4,0.4-0.5c0.2-0.3,0.5-0.6,0.7-0.7
		c0.4-0.3,0.9-0.8,1.6-1.5c0.6-0.7,1.1-1.2,1.5-1.5c0.7-0.6,1.2-1,1.4-1c0.2-0.1,0.4,0,0.5,0c0.2,0.3,0.3,0.5,0.2,0.6
		c-0.1,0.1-0.3,0.3-0.6,0.6s-0.5,0.4-0.5,0.5c-0.3,0.2-0.6,0.5-1.1,0.9c-0.5,0.4-0.8,0.8-1,1c-0.1,0.1-0.2,0.2-0.4,0.4
		s-0.3,0.3-0.4,0.4c-0.1,0.1-0.2,0.2-0.3,0.4c-0.1,0.2-0.3,0.4-0.4,0.5c-0.6,0.6-0.9,0.9-1,1.1c-0.2,0.3-0.5,0.8-1,1.3
		c-0.6,0.7-1,1.1-1.1,1.3c-0.1,0-0.2,0-0.2,0.1c-0.1,0-0.1,0.1-0.1,0.2c0,0.1-0.1,0.2-0.1,0.2C334.5,153.7,333.9,153.9,333.5,153.9z
		"/>
	<path class="st0" d="M342.1,161.2c-0.7,0.1-1.3-0.1-1.7-0.6c-0.4-0.5-0.5-1-0.3-1.7c0.1-0.4,0.3-0.6,0.4-0.8
		c0.2-0.5,0.8-1.2,1.8-2.2c0.4-0.4,0.8-0.8,1.3-1.2c0.5-0.4,0.9-0.7,1.3-1c0.4-0.2,0.8-0.6,1.4-0.9c0.6-0.4,1-0.7,1.2-0.8l0.6-1.9
		c0.3-1.1,0.8-2.8,1.4-5l-0.9,1.1c-0.6,0.7-1.3,1.5-1.9,2.3c-0.7,0.8-1.1,1.3-1.2,1.4c-0.1,0.1-0.2,0.2-0.3,0.4s-0.3,0.3-0.4,0.4
		l-0.1,0c-0.1,0-0.2,0.1-0.2,0.1c-0.8,0.5-1.3,0.8-1.5,0.8c-0.8,0.1-1.4-0.2-1.8-0.8s-0.6-1.4-0.5-2.3c0.1-0.7,0.4-1.7,0.9-2.8
		c0.2-0.4,0.5-1,1-1.7s0.8-1.2,0.9-1.4c0.7-1,1.3-1.3,1.9-1c0,0,0.1,0.2,0.4,0.4c0.1,0.6-0.1,1.2-0.6,1.9s-0.7,1.2-0.8,1.5
		c-0.3,0.1-0.4,0.3-0.4,0.7c-0.3,0.3-0.5,0.6-0.7,1c-0.2,0.4-0.4,0.8-0.5,1.4c-0.2,0.5-0.3,0.9-0.5,1.2c0,0.1,0,0.3,0,0.6
		c0.1,0,0.3-0.1,0.6-0.2c0.2-0.1,0.4-0.2,0.5-0.3c0.6-0.4,1.2-0.9,1.8-1.6c0.6-0.6,1.3-1.4,2.1-2.4c0.8-0.9,1.4-1.6,1.7-2
		c0.1-0.1,0.2-0.3,0.4-0.5c0.2-0.3,0.3-0.5,0.4-0.6c0,0,0.1-0.1,0.2-0.2c0.1-0.1,0.2-0.2,0.2-0.3c0-0.1,0.1-0.1,0.2-0.2
		c0.1-0.1,0.2-0.1,0.2-0.2c0.1,0,0.1,0,0.2,0c0.1,0,0.2,0,0.3,0.1c0.1,0.1,0.2,0.2,0.2,0.3c-0.1,0.5-0.2,1.2-0.4,2.1
		c-0.2,0.9-0.3,1.6-0.4,1.9l-0.4,1.9c-0.2,1-0.2,1.5-0.2,1.7c0.1,0,0.2-0.1,0.3-0.2c0.1-0.1,0.2-0.2,0.3-0.3
		c0.1-0.1,0.2-0.2,0.2-0.3l1.1-1l1.8-1.6c0.8-0.8,1.5-1.3,1.8-1.7c0.8-0.6,1.2-1,1.4-1c0.2-0.1,0.4,0,0.5,0c0.2,0.1,0.2,0.2,0.2,0.3
		c0,0.1,0,0.2-0.1,0.4c-0.1,0.1-0.2,0.3-0.3,0.4c-0.1,0.1-0.3,0.2-0.4,0.3c-0.1,0.1-0.2,0.2-0.2,0.2c-0.1,0.2-0.3,0.4-0.6,0.6
		c-0.3,0.3-0.5,0.4-0.5,0.4l-1.2,1.1l-2,1.8c-0.2,0.1-0.7,0.5-1.6,1.4c-0.1,0.1-0.3,0.2-0.6,0.4c-0.3,0.2-0.5,0.4-0.6,0.5
		c-0.1,0.1-0.2,0.3-0.2,0.4c-0.1,0.1-0.1,0.3-0.2,0.5s-0.1,0.3-0.1,0.4l-0.6,1.4c-0.2,0.3-0.5,0.8-0.9,1.6s-0.7,1.3-1,1.7l-0.2,0.2
		c-0.2,0.2-0.3,0.4-0.5,0.6l-0.2,0.3c-0.1,0.1-0.3,0.3-0.6,0.6c-0.3,0.2-0.5,0.4-0.6,0.6c-0.2,0.1-0.5,0.3-1,0.6
		S342.5,161.1,342.1,161.2z M341.2,160.3c0.1,0.1,0.3,0.1,0.6,0c0.3-0.1,0.5-0.2,0.5-0.3c0.7-0.7,1.1-1.1,1.4-1.3
		c0.1-0.3,0.4-0.6,0.9-1.1c0.1,0,0.3-0.3,0.6-0.9c0.3-0.6,0.5-0.9,0.6-0.9l0.6-1c0.3-0.6,0.4-0.9,0.3-1c-0.2,0-0.4,0.1-0.6,0.3
		s-0.4,0.3-0.6,0.5c-0.2,0.2-0.3,0.3-0.4,0.4c-1.1,0.9-1.9,1.7-2.5,2.4L342,158c-0.2,0.2-0.3,0.5-0.5,0.9
		C341,159.6,340.9,160,341.2,160.3z"/>
</g>
<g>
	<path class="st1" d="M17.7,72.9H1.4v-9.5h43.8v9.5H28.9v44.7H17.7V72.9z"/>
	<path class="st1" d="M66.8,81.3c2.5-3.9,7.3-4.6,11.3-4.6c11.9,0,14.3,5.7,14.3,18.4v22.5H81.9V97c0-9.1,0-11.6-6.7-11.6
		c-7,0-8.4,2.8-8.4,10.4v21.9H56.3V63.4h10.5V81.3z"/>
	<path class="st1" d="M141.6,106.2c-1.3,9.2-7.3,12.4-18.1,12.4c-12.3,0-19.1-4.2-19.1-21.3c0-11.4,3-20.5,19.5-20.5
		c14,0,18.1,6.5,18.1,23.8h-26.8c0.4,7.6,2.3,9.4,8.2,9.4c4,0,6.4-0.8,7.5-3.8H141.6z M131.5,93.9c-0.5-7.3-3.3-8.5-8.2-8.5
		c-6.1,0-7.7,2.1-8.1,8.5H131.5z"/>
	<path class="st1" d="M181.2,117.6c-6.1-18.1-11-36.1-14.5-54.2h11.8c2,12.9,4.9,25.9,8.6,38.8l8.3-38.8h12.3l8.6,39
		c3.9-13,6.8-26,8.7-39h11.3c-3.5,18.1-8.4,36.1-14.5,54.2H210l-8.5-39.4l-8.5,39.4H181.2z"/>
	<path class="st1" d="M252.6,62.3c4.9,0,6,1.7,6,5.7s-1.1,5.6-6,5.6c-4.9,0-6-1.7-6-5.6S247.7,62.3,252.6,62.3z M247.4,77.7h10.5
		v39.9h-10.5V77.7z"/>
	<path class="st1" d="M307.7,91.2h-10.4c-0.8-3.9-2.1-5.8-7.5-5.8c-5.7,0-8.1,2-8.1,12.3c0,10.3,2.4,12.3,7.6,12.3
		c5.7,0,7.7-2.5,8-6.5h10.5c-0.8,8.9-4.8,15.1-18,15.1c-15.8,0-18.9-8.9-18.9-20.5c0-12.7,3.8-21.3,19.4-21.3
		C301.8,76.7,306.8,81.4,307.7,91.2L307.7,91.2z"/>
	<path class="st1" d="M320.2,63.4h10.5v29.1l12.9-14.7h12.9l-13.9,15.1l14.4,24.7H345l-9.7-17.3l-4.5,4.7v12.6h-10.5V63.4z"/>
</g>
<path class="st2" d="M253.8,76.1c0,0,5.2-1.2,6.2-6.6c0,0,0.9-2.9-1.5-8.7c0,0-3.5-11.5-10.8-11.5c0,0,3.2,2.9,2,6.9
	c0,0-4.3,6.3-4.6,9.6c0,0-0.9,5.5,4,9.4C249.1,75.1,251.2,76.3,253.8,76.1z"/>
<path class="st3" d="M253.8,74.3c-1.6,0.4-2.7-4.9-2.3-6.7c0,0,0.3-2.3,2-4.4c0,0,1.7-2.8,1.6-4.6c0,0,2.4,1.7,3.3,6.4
	c0,0,0.6,3.6-2,8.1C256.3,73.2,255.4,74,253.8,74.3z"/>
<g>
	<g>
		<path class="st1" d="M16.4,57.8C10.1,39.2,5.1,20.6,1.5,2h12.1c2.1,13.3,5.1,26.6,8.9,39.9L31,2h12.7l8.9,40.1
			c4-13.4,7-26.8,8.9-40.1h11.7c-3.6,18.6-8.6,37.2-14.9,55.8H46.1l-8.7-40.5l-8.8,40.5H16.4z"/>
		<path class="st1" d="M99.6,58.8c-10.6,0-20.9-4.1-20.9-21.5c0-14.8,7.5-21.5,21-21.5s21.1,6.8,21.1,21.5
			C120.8,52.2,113,58.8,99.6,58.8z M99.7,24.6c-7.2,0-9.9,3.3-9.9,12.7c0,9.5,2.6,12.7,10,12.7c7.2,0,9.9-3.1,9.9-12.8
			C109.7,28,107.2,24.6,99.7,24.6z"/>
		<path class="st1" d="M133.6,57.8v-41h10.2v5.1c2.5-4.3,5.2-6,10.6-6c1.9,0,2.8,0.2,2.8,0.2v10.3c0,0-1.2-0.2-3.4-0.2
			c-8.6,0-9.3,7-9.3,16.3v15.2H133.6z"/>
		<path class="st1" d="M169.2,2H180v29.9l13.3-15.2h13.3l-14.3,15.6l14.9,25.4h-12.5l-10-17.8l-4.7,4.8v13h-10.8V2z"/>
	</g>
</g>
</svg>
