<?xml version="1.0" encoding="utf-8"?>
<!-- Generator: Adobe Illustrator 24.0.0, SVG Export Plug-In . SVG Version: 6.00 Build 0)  -->
<svg version="1.1" id="Layer_1" xmlns="http://www.w3.org/2000/svg" xmlns:xlink="http://www.w3.org/1999/xlink" x="0px" y="0px"
	 viewBox="0 0 256.3 82.8" style="enable-background:new 0 0 256.3 82.8;" xml:space="preserve">
<style type="text/css">
	.st0{fill:#2B388F;}
	.st1{fill:#D02027;}
	.st2{fill:#E25026;}
</style>
<g>
	<path class="st0" d="M13.1,50.8H1.4V44h31.4v6.8H21.1v32h-8V50.8z"/>
	<path class="st0" d="M48.3,56.9c1.8-2.8,5.2-3.3,8.1-3.3c8.5,0,10.2,4.1,10.2,13.2v16.1h-7.5V68.1c0-6.5,0-8.3-4.8-8.3
		c-5,0-6,2-6,7.4v15.7h-7.5V44h7.5V56.9z"/>
	<path class="st0" d="M101.9,74.6c-0.9,6.6-5.3,8.9-13,8.9c-8.8,0-13.7-3-13.7-15.3c0-8.2,2.2-14.7,14-14.7c10,0,13,4.7,13,17.1
		H82.9c0.3,5.4,1.6,6.7,5.9,6.7c2.9,0,4.6-0.5,5.4-2.7H101.9z M94.7,65.8c-0.3-5.2-2.4-6.1-5.9-6.1c-4.4,0-5.5,1.5-5.8,6.1H94.7z"/>
	<path class="st0" d="M130.3,82.8c-4.4-13-7.9-25.9-10.4-38.8h8.5c1.5,9.3,3.5,18.5,6.2,27.8l6-27.8h8.8l6.2,28
		c2.8-9.3,4.9-18.6,6.2-28h8.1c-2.5,12.9-6,25.9-10.4,38.8h-8.5l-6.1-28.2l-6.1,28.2H130.3z"/>
	<path class="st0" d="M181.4,43.2c3.5,0,4.3,1.2,4.3,4.1s-0.8,4-4.3,4c-3.5,0-4.3-1.2-4.3-4S177.9,43.2,181.4,43.2z M177.7,54.3h7.5
		v28.6h-7.5V54.3z"/>
	<path class="st0" d="M220.9,63.9h-7.5c-0.6-2.8-1.5-4.2-5.4-4.2c-4.1,0-5.8,1.5-5.8,8.8c0,7.4,1.7,8.8,5.4,8.8
		c4.1,0,5.5-1.8,5.7-4.7h7.5c-0.6,6.4-3.5,10.8-12.9,10.8c-11.3,0-13.5-6.4-13.5-14.7c0-9.1,2.7-15.3,13.9-15.3
		C216.7,53.5,220.2,56.9,220.9,63.9L220.9,63.9z"/>
	<path class="st0" d="M229.9,44h7.5v20.9l9.3-10.6h9.3l-10,10.8l10.3,17.7h-8.7l-6.9-12.4l-3.3,3.4v9h-7.5V44z"/>
</g>
<path class="st1" d="M182.3,53.1c0,0,3.7-0.9,4.4-4.8c0,0,0.7-2.1-1.1-6.3c0,0-2.5-8.2-7.7-8.2c0,0,2.3,2.1,1.4,5
	c0,0-3.1,4.5-3.3,6.9c0,0-0.6,3.9,2.9,6.7C178.9,52.4,180.4,53.2,182.3,53.1z"/>
<path class="st2" d="M182.2,51.8c-1.1,0.3-1.9-3.5-1.7-4.8c0,0,0.2-1.7,1.4-3.2c0,0,1.2-2,1.2-3.3c0,0,1.7,1.2,2.4,4.6
	c0,0,0.4,2.6-1.5,5.8C184.1,51,183.4,51.6,182.2,51.8z"/>
<g>
	<g>
		<path class="st0" d="M12.2,40C7.7,26.6,4,13.3,1.5,0h8.7c1.5,9.5,3.6,19.1,6.4,28.6L22.6,0h9.1l6.4,28.8c2.8-9.6,5-19.2,6.4-28.8
			h8.4c-2.6,13.3-6.2,26.6-10.7,40h-8.7l-6.2-29l-6.3,29H12.2z"/>
		<path class="st0" d="M71.8,40.7c-7.6,0-15-3-15-15.4c0-10.6,5.3-15.4,15-15.4s15.1,4.8,15.1,15.4C86.9,36,81.4,40.7,71.8,40.7z
			 M71.8,16.2c-5.2,0-7.1,2.3-7.1,9.1c0,6.8,1.9,9.1,7.1,9.1c5.1,0,7.1-2.2,7.1-9.1C79,18.6,77.2,16.2,71.8,16.2z"/>
		<path class="st0" d="M96.1,40V10.6h7.3v3.7c1.8-3.1,3.7-4.3,7.6-4.3c1.4,0,2,0.2,2,0.2v7.4c0,0-0.9-0.2-2.5-0.2
			c-6.1,0-6.7,5-6.7,11.7V40H96.1z"/>
		<path class="st0" d="M121.6,0h7.7v21.5l9.5-10.9h9.5l-10.3,11.1L148.8,40h-9l-7.1-12.8l-3.3,3.5V40h-7.7V0z"/>
	</g>
</g>
</svg>
